/* XPM */
static char *result[] = {
/* columns rows colors chars-per-pixel */
"32 32 147 2 ",
"   c black",
".  c #090909",
"X  c #0B0B0B",
"o  c #0E0F10",
"O  c #101112",
"+  c #101212",
"@  c #121314",
"#  c #131415",
"$  c #131515",
"%  c #141616",
"&  c #141617",
"*  c #161617",
"=  c #181818",
"-  c #272727",
";  c gray16",
":  c gray17",
">  c #2D2D2D",
",  c #2F2F2F",
"<  c #2E3234",
"1  c gray19",
"2  c #323232",
"3  c #303436",
"4  c #343434",
"5  c gray21",
"6  c #353A3C",
"7  c #373C3F",
"8  c #3C3C3C",
"9  c #3F3F3F",
"0  c #3D4346",
"q  c #3F4548",
"w  c gray25",
"e  c #43484B",
"r  c #454B4E",
"t  c #474D51",
"y  c #4F5050",
"u  c #4E5355",
"i  c #505050",
"p  c #515151",
"a  c gray32",
"s  c #545656",
"d  c gray34",
"f  c #51585B",
"g  c #585858",
"h  c gray35",
"j  c #5D5D5D",
"k  c #5F5F5F",
"l  c DimGray",
"z  c gray42",
"x  c #6C6C6C",
"c  c #677075",
"v  c #6E7376",
"b  c #697378",
"n  c #767676",
"m  c gray47",
"M  c #7B7B7B",
"N  c #747E82",
"B  c #778186",
"V  c #788389",
"C  c #7C878D",
"Z  c #7F898E",
"A  c gray52",
"S  c #868686",
"D  c gray54",
"F  c #8A8B8C",
"G  c #8D8D8D",
"H  c gray56",
"J  c #8F9192",
"K  c #939393",
"L  c gray58",
"P  c #959595",
"I  c gray59",
"U  c gray61",
"Y  c #949DA1",
"T  c #9DA6AA",
"R  c #9CA6AB",
"E  c #A2A2A2",
"W  c gray64",
"Q  c gray66",
"!  c #A9A9A9",
"~  c gray70",
"^  c #A9B8C0",
"/  c #ACBBC3",
"(  c #ADBDC5",
")  c #B0C0C8",
"_  c #BDC7CC",
"`  c gray80",
"'  c #CDCDCD",
"]  c #C8CED1",
"[  c #C5D0D6",
"{  c #DADADA",
"}  c gray86",
"|  c #C8DAE3",
" . c #C9DBE4",
".. c #CBDDE5",
"X. c #CEDFE8",
"o. c #D7DFE3",
"O. c #CFE0E9",
"+. c #D0E2EB",
"@. c #D5E3EA",
"#. c #D4E6EE",
"$. c #D9E7EE",
"%. c #DBE9F0",
"&. c #DCE9F0",
"*. c #DFEAF0",
"=. c gray88",
"-. c gray89",
";. c gray92",
":. c #ECECEC",
">. c gray93",
",. c #EFEFEF",
"<. c #E1ECF1",
"1. c #E2EDF2",
"2. c #E5EEF2",
"3. c #E8EFF3",
"4. c #EBF2F5",
"5. c #ECF3F6",
"6. c #EFF4F7",
"7. c #EEF4F8",
"8. c #F1F1F1",
"9. c #F3F3F3",
"0. c gray96",
"q. c #F6F6F6",
"w. c #F6F7F7",
"e. c gray97",
"r. c #F1F6F8",
"t. c #F2F6F8",
"y. c #F4F7F9",
"u. c #F6F9FB",
"i. c #F7FAFB",
"p. c #F8F8F8",
"a. c #F9F9F9",
"s. c gray98",
"d. c #FBFBFB",
"f. c #F8FBFC",
"g. c #F9FBFC",
"h. c #FAFCFD",
"j. c #F8FCFE",
"k. c #FBFEFF",
"l. c #FCFDFD",
"z. c #FDFDFD",
"x. c #FCFDFE",
"c. c #FDFEFE",
"v. c #FEFEFE",
"b. c #FEFEFF",
"n. c #FEFFFF",
"m. c white",
"M. c None",
/* pixels */
"M.M.M.M.M.M.M.M.M.M.M.M.M.M.M.M.M.M.M.M.M.M.M.M.M.M.M.M.M.M.M.M.",
"M.M.M.M.M.M.M.M.M.M.M.M.M.M.M.M.M.M.M.M.M.M.M.M.M.M.M.M.M.M.M.M.",
"M.M.M.M.M.M.M.M.M.M.M.M.M.M.M.M.M.M.M.M.M.M.M.M.M.M.M.M.M.M.M.M.",
"M.M.M.M.M.M.M.M.M.M.M.M.M.M.M.M.M.M.M.M.M.M.M.M.M.M.M.M.M.M.M.M.",
"M.M.M.M.M.M.M.M.                          M.M.M.M.M.M.M.M.M.M.M.",
"M.M.M.M.M.M.M.M.# % = = = = = = = = = * $ @ M.M.M.M.M.M.M.M.M.M.",
"M.M.M.M.M.M.  q / _ { { { { { { { { } ] ) b   M.M.M.M.M.M.M.M.M.",
"M.M.M.M.M.M.o f O.1.m.m.m.m.m.m.m.m.m.7.#.Z O + M.M.M.M.M.M.M.M.",
"M.M.M.M.  0 ^ [ u.h.m.m.m.m.m.m.m.m.m.l.f.o.( c   M.M.M.M.M.M.M.",
"M.M.M.M.  e X.<.m.m.m.m.m.m.m.m.m.m.m.m.m.5.#.N     M.M.M.M.M.M.",
"M.M.M.M.  y y.g.m.m.m.m.m.m.m.m.m.m.m.m.m.x.k.F     M.M.M.M.M.M.",
"M.M.M.M.  a z.m.m.m.m.p.:.9.m.m.m.m.m.e.:.0.m.H     M.M.M.M.M.M.",
"M.M.M.M.  a z.m.m.m.m.~ ; M m.m.m.m.m.Q - S m.H     M.M.M.M.M.M.",
"M.M.M.M.  a z.m.m.m.m.E   j m.m.m.m.m.L   z m.H     M.M.M.M.M.M.",
"M.M.M.M.  a z.m.m.m.m.W   k m.m.m.m.m.P   x m.H     M.M.M.M.M.M.",
"M.M.M.M.  a z.m.m.m.m.! X l m.m.m.m.m.U . n m.H     M.M.M.M.M.M.",
"M.M.M.M.  a z.m.m.m.m.>.' =.m.m.m.m.m.;.` -.m.H     M.M.M.M.M.M.",
"M.M.M.M.  i ,.q.m.m.m.m.m.m.m.m.m.m.m.m.m.d.0.D     M.M.M.M.M.M.",
"M.M.M.M.M.M.1 m v.m.m.m.m.m.m.m.m.m.m.m.m.! 2 > M.M.M.M.M.M.M.M.",
"M.M.M.M.M.M.  p 8.w.x.c.m.m.m.m.m.b.c.a.e.G     M.M.M.M.M.M.M.M.",
"M.M.M.M.M.M.M.M.4 v @.2.m.m.m.m.m.6.$.Y 5 , M.M.M.M.M.M.M.M.M.M.",
"M.M.M.M.M.M.M.M.  r ..*.m.m.m.m.m.4.+.B     M.M.M.M.M.M.M.M.M.M.",
"M.M.M.M.M.M.M.M.  s t.i.m.m.m.m.m.h.j.J     M.M.M.M.M.M.M.M.M.M.",
"M.M.M.M.M.M.M.M.  h m.m.m.m.m.m.m.m.m.I     M.M.M.M.M.M.M.M.M.M.",
"M.M.M.M.M.M.M.M.  g m.m.m.m.m.m.m.m.m.I     M.M.M.M.M.M.M.M.M.M.",
"M.M.M.M.M.M.M.M.  d q.s.m.n.c.d.e.e.d.K     M.M.M.M.M.M.M.M.M.M.",
"M.M.M.M.M.M.M.M.M.: 8 A m.r.%.T 9 w w 5 M.M.M.M.M.M.M.M.M.M.M.M.",
"M.M.M.M.M.M.M.M.M.M.  h n.3.| V         M.M.M.M.M.M.M.M.M.M.M.M.",
"M.M.M.M.M.M.M.M.M.M.  u &.R 6 < M.M.M.M.M.M.M.M.M.M.M.M.M.M.M.M.",
"M.M.M.M.M.M.M.M.M.M.  t  .C     M.M.M.M.M.M.M.M.M.M.M.M.M.M.M.M.",
"M.M.M.M.M.M.M.M.M.M.  & 7 3 M.M.M.M.M.M.M.M.M.M.M.M.M.M.M.M.M.M.",
"M.M.M.M.M.M.M.M.M.M.        M.M.M.M.M.M.M.M.M.M.M.M.M.M.M.M.M.M."
};
