/* XPM */
static char *result[] = {
/* columns rows colors chars-per-pixel */
"32 32 15 1 ",
"  c #660709",
". c #0F4C1C",
"X c #197B30",
"o c #487F00",
"O c #9E0B0F",
"+ c #874A0D",
"@ c #A0410D",
"# c #A04D1F",
"$ c #A0611F",
"% c #FF5D00",
"& c #00A651",
"* c #FF8800",
"= c #FFB200",
"- c #FFF200",
"; c None",
/* pixels */
";;;;;;;;;;;;;;;;;;;;;;;;;;;;;;;;",
";;;;;;;;;;;;;;;;;;;;;;;;;;;;;;;;",
";;;;;;;;;;;;;;;;;;;;;;;;;;;;;;;;",
";;;;;;;;;;;;;;;;;;;;;;;;;;;;;;;;",
";;;;;;;;;;;;;;;;;;;;;;;;;;;;;;;;",
";;;;;;;;;;;;;;;;;;;;;;;;;;;;;;;;",
";;;;;;;;;;;;;;;;;;;;;;;;;;;;;;;;",
";;;;;;;;;;;;;******;;;;;;;;;;;;;",
";;;;;;;;;;;****----**;;;;;;;;;;;",
";;;;;;;;;;***--====--*;;;;;;;;;;",
";;;;;;;;;***-========-*;;;;;;;;;",
";;;;;;;;;***-========-*;;;;;;;;;",
";;;;;;;;***-==========-*;;;;;;;;",
";;;;;;;;***-==========-*;;;;;;;;",
";;;;;;;;***-==========-*;;;;;;;;",
";;;;;;;;***-==========-*;;;;;;;;",
";;;;;;;;***-===%%**===-*;;;;;;;;",
";;;;;;;;***-===%***===-*;;;;;;;;",
";;;;;;;;***-===%%%%===-*;;;;;;;;",
";;;;;;;;***-==========-*;;;;;;;;",
";;;;;;;;***-=***=****=-*;;;;;;;;",
";;;;;;;;***-==========-*;;;;;;;;",
";;;;;;;;***-=**O  =**=-*;;;;;;;;",
";;;;;;;;***-==O OOO== OO;;;;;;;;",
";;;;;;;**OOO***OOO**O  OO;;;;;;;",
";;;;;;;*OO OO---X----OOO*;;;;;;;",
";;;;;;;**O  =&..X===..X-*;;;;;;;",
";;;;;;;&..X==X=.X..&=.X.&;;;;;;;",
";;;;;;;X*&X.oX==&.=X=&XoX;;;;;;;",
";;;;;;oX*XX&o##=Xo=X@X##X;;;;;;;",
";;;;;;##*X@X#$@#Xo@##@$@#@;;;;;;",
";;;;;@@#@$+@@#@@+@@$@#@+@@@;;;;;"
};
