/* XPM */
static char *result[] = {
/* columns rows colors chars-per-pixel */
"32 32 103 2 ",
"   c black",
".  c #020303",
"X  c gray1",
"o  c gray2",
"O  c gray5",
"+  c gray6",
"@  c #121414",
"#  c #121415",
"$  c #141617",
"%  c #161616",
"&  c #151718",
"*  c #161819",
"=  c #181818",
"-  c #191919",
";  c #181A1A",
":  c #181A1B",
">  c #191B1C",
",  c gray11",
"<  c #1D1D1D",
"1  c #1E1E1D",
"2  c #1D1E1E",
"3  c #1E1E1E",
"4  c gray14",
"5  c #252525",
"6  c #27292A",
"7  c gray17",
"8  c #2D2F30",
"9  c #303233",
"0  c gray20",
"q  c #303436",
"w  c #353535",
"e  c #33383A",
"r  c #373B3D",
"t  c gray25",
"y  c #414242",
"u  c #434343",
"i  c #464C4E",
"p  c #4E4E4E",
"a  c #9CAAB1",
"s  c #9CAAB2",
"d  c #9EACB4",
"f  c #B9B9B9",
"g  c #BBBBBB",
"h  c #ADBDC5",
"j  c #B7C6CE",
"k  c #BAC8CE",
"l  c #BAC8CF",
"z  c #BAC9D0",
"x  c #BBCAD1",
"c  c #BECAD0",
"v  c #BDCCD3",
"b  c gray77",
"n  c #C5C5C5",
"m  c #C6C6C6",
"M  c gray79",
"N  c gray80",
"B  c #C5D1D7",
"V  c #D0D0D0",
"C  c #D5D5D5",
"Z  c gray84",
"A  c #DADADA",
"S  c #DCDEDF",
"D  c gray87",
"F  c #DEDFDF",
"G  c #CCDCE4",
"H  c #DFE0E0",
"J  c #D5E4EC",
"K  c #D8E7EE",
"L  c #DBE8EE",
"P  c #DEEAF0",
"I  c gray88",
"U  c #E1E1E1",
"Y  c #E2E1E1",
"T  c #E2E2E2",
"R  c gray89",
"E  c #E4E4E4",
"W  c gray90",
"Q  c #E6E6E6",
"!  c #E7E7E7",
"~  c #E7E7E8",
"^  c #E9E9E9",
"/  c #EEEEEE",
"(  c #F3F3F3",
")  c #F1F4F5",
"_  c #F2F4F5",
"`  c #F4F4F4",
"'  c #F4F6F7",
"]  c #F7F9FA",
"[  c #F7FAFB",
"{  c #F8F8F8",
"}  c #F9F9F9",
"|  c #F8F9FA",
" . c gray98",
".. c #FBFBFB",
"X. c #F9FBFC",
"o. c #FAFCFD",
"O. c #FBFCFD",
"+. c #FBFDFE",
"@. c #FEFEFE",
"#. c #FEFEFF",
"$. c #FEFFFF",
"%. c white",
"&. c None",
/* pixels */
"&.&.&.&.&.&.&.&.&.&.&.&.&.&.&.&.&.&.&.&.&.&.&.&.&.&.&.&.&.&.&.&.",
"&.&.&.&.&.&.&.&.&.&.&.&.&.&.&.&.&.&.&.&.&.&.&.&.&.&.&.&.&.&.&.&.",
"&.&.&.&.&.&.&.&.                            &.&.&.&.&.&.&.&.&.&.",
"&.&.&.&.&.&.&.&.e r y u u u u u u u u y r e &.&.&.&.&.&.&.&.&.&.",
"&.&.&.&.&.&.  & h G _ { { { { { { { { _ G h &   &.&.&.&.&.&.&.&.",
"&.&.&.&.&.&.q i B P O.%.%.%.%.%.%.%.%.O.P B i q &.&.&.&.&.&.&.&.",
"&.&.&.&.  : h G ] #.%.%.%.%.%.%.%.%.%.%.#.] G h :   &.&.&.&.&.&.",
"&.&.&.&.  > c P o.%.%.%.%.%.%.%.%.%.%.%.%.o.P c >   &.&.&.&.&.&.",
"&.&.&.&.  3 H %.%.%.%.%.%.%.%.%.%.%.%.%.%.%.%.H 3   &.&.&.&.&.&.",
"&.&.&.&.  3 U %.%.{ N n n N { %.%.{ N n n N  .Y 3   &.&.&.&.&.&.",
"&.&.&.&.  3 U %.%.T 4 o o 4 T %.%.T 4 o o 4 E R 3   &.&.&.&.&.&.",
"&.&.&.&.  3 U %.%.! p w w p ! %.%.! p w w p ^ R 3   &.&.&.&.&.&.",
"&.&.&.&.  3 U %.%.@.` ( ( ` @.%.%.@.` ( ( ` %.U 3   &.&.&.&.&.&.",
"&.&.&.&.  3 U %.%.%.%.%.%.%.%.%.%.%.%.%.%.%.%.U 3   &.&.&.&.&.&.",
"&.&.&.&.  3 R %.%.%.%.%.%.%.%.%.%.%.%.%.%.%.%.R 3   &.&.&.&.&.&.",
"&.&.&.&.  < f C } %.%.%.%.%.%.%.%.%.%.%.%.} C f <   &.&.&.&.&.&.",
"&.&.&.&.&.&.O 7 W %.%.%.%.%.%.%.%.%.%.%.%.W 7 O &.&.&.&.&.&.&.&.",
"&.&.&.&.&.&.  , g Z ) [ @.%.%.%.%.@.[ ) Z g ,   &.&.&.&.&.&.&.&.",
"&.&.&.&.&.&.&.&.+ 6 j J X.%.%.%.%.X.J j 6 + &.&.&.&.&.&.&.&.&.&.",
"&.&.&.&.&.&.&.&.  ; k L o.%.%.%.%.o.L k ;   &.&.&.&.&.&.&.&.&.&.",
"&.&.&.&.&.&.&.&.  2 F $.%.%.%.%.%.%.$.F 2   &.&.&.&.&.&.&.&.&.&.",
"&.&.&.&.&.&.&.&.  3 U %.%.%.%.%.%.%.%.U 3   &.&.&.&.&.&.&.&.&.&.",
"&.&.&.&.&.&.&.&.  3 U %.%.%.%.%.%.%.%.U ,   &.&.&.&.&.&.&.&.&.&.",
"&.&.&.&.&.&.&.&.  3 U %.%.%.%.%.%.%.%.Q t 5 &.&.&.&.&.&.&.&.&.&.",
"&.&.&.&.&.&.&.&.  3 R %.%.%.%.%.%.%.%.%./ V 1   &.&.&.&.&.&.&.&.",
"&.&.&.&.&.&.&.&.  < b I ..$.X.' D A A D [ S <   &.&.&.&.&.&.&.&.",
"&.&.&.&.&.&.&.&.&.&.% 0 E +.K x 8 % % 8 v z :   &.&.&.&.&.&.&.&.",
"&.&.&.&.&.&.&.&.&.&.  , U | l s *     * d a $   &.&.&.&.&.&.&.&.",
"&.&.&.&.&.&.&.&.&.&.  3 E ~ 9 # &.&.&.&.$ @ .   &.&.&.&.&.&.&.&.",
"&.&.&.&.&.&.&.&.&.&.  < M m -   &.&.&.&.        &.&.&.&.&.&.&.&.",
"&.&.&.&.&.&.&.&.&.&.&.&., = X   &.&.&.&.&.&.&.&.&.&.&.&.&.&.&.&.",
"&.&.&.&.&.&.&.&.&.&.&.&.        &.&.&.&.&.&.&.&.&.&.&.&.&.&.&.&."
};
