/* XPM */
static char *result[] = {
/* columns rows colors chars-per-pixel */
"32 32 151 2 ",
"   c black",
".  c gray2",
"X  c #060606",
"o  c #070808",
"O  c gray3",
"+  c #0B0B0B",
"@  c gray5",
"#  c #0D0E0F",
"$  c #0E0E0E",
"%  c gray6",
"&  c #0E0F10",
"*  c #101010",
"=  c #111111",
"-  c gray7",
";  c #131313",
":  c #111314",
">  c #121414",
",  c #131415",
"<  c #151515",
"1  c #141516",
"2  c #161616",
"3  c #171818",
"4  c #181818",
"5  c gray10",
"6  c #1B1B1B",
"7  c #1B1E1F",
"8  c #1E1F20",
"9  c #222222",
"0  c gray15",
"q  c #272727",
"w  c #272A2C",
"e  c #282828",
"r  c #2A2A2A",
"t  c #2C3032",
"y  c #2D3134",
"u  c #2F3334",
"i  c #2F3335",
"p  c #313131",
"a  c #323232",
"s  c gray20",
"d  c #303436",
"f  c #323739",
"g  c #34393B",
"h  c #36393B",
"j  c #363B3D",
"k  c gray22",
"l  c #393939",
"z  c #3A3A3A",
"x  c gray23",
"c  c #383C3E",
"v  c #3C3C3C",
"b  c #3F3F3F",
"n  c #3C3F41",
"m  c #3D4142",
"M  c gray25",
"N  c #414141",
"B  c #404142",
"V  c gray26",
"C  c #434343",
"Z  c #424445",
"A  c #404548",
"S  c #484848",
"D  c #525455",
"F  c gray33",
"G  c #5D5D5D",
"H  c #5A6164",
"J  c #A4B3BB",
"K  c #A6B5BD",
"L  c #A9B8BF",
"P  c gray70",
"I  c #B9B9B9",
"U  c #BBBBBB",
"Y  c #AFBBC1",
"T  c #ADBBC2",
"R  c #B6C2C8",
"E  c #B3C4CC",
"W  c #B9C5CB",
"Q  c #BDC9CF",
"!  c #BFCCD2",
"~  c #BDCED7",
"^  c gray78",
"/  c #C8C8C8",
"(  c gray79",
")  c #CACACA",
"_  c #CECECE",
"`  c #C5D6DE",
"'  c #C7D7DF",
"]  c #CCD9DF",
"[  c #D0D0D0",
"{  c #D0D1D1",
"}  c gray82",
"|  c #D2D2D2",
" . c LightGray",
".. c gray83",
"X. c #D5D5D5",
"o. c #D6D7D7",
"O. c #D8D8D8",
"+. c #D8D9D9",
"@. c gray85",
"#. c #D9DADA",
"$. c #DADADA",
"%. c gainsboro",
"&. c #DFDFDF",
"*. c #CAD9E0",
"=. c #CADBE3",
"-. c #D0DEE5",
";. c #D1DEE5",
":. c #D2DFE6",
">. c #D3E3EB",
",. c #D9E6ED",
"<. c #D9E7EE",
"1. c #DBE8EF",
"2. c #DEE9EF",
"3. c #DDEAF0",
"4. c #E0E1E1",
"5. c gray93",
"6. c #EEEEEE",
"7. c #E2ECF1",
"8. c #EFF2F3",
"9. c #EFF2F4",
"0. c #F1F1F1",
"q. c #F1F2F2",
"w. c gray95",
"e. c #F3F3F3",
"r. c #F4F4F4",
"t. c gray96",
"y. c #F5F6F6",
"u. c #F6F6F6",
"i. c #F6F7F7",
"p. c gray97",
"a. c #F4F7F9",
"s. c #F6F8FA",
"d. c #F6F9FB",
"f. c #F7FAFB",
"g. c #F8F8F8",
"h. c #F9F8F8",
"j. c #F9F9F9",
"k. c gray98",
"l. c #F8FAFC",
"z. c #F9FBFC",
"x. c #FBFCFD",
"c. c gray99",
"v. c #FDFDFD",
"b. c #FDFDFE",
"n. c #FDFEFE",
"m. c #FDFEFF",
"M. c #FEFEFE",
"N. c #FEFEFF",
"B. c #FEFFFF",
"V. c white",
"C. c None",
/* pixels */
"C.C.C.C.C.C.C.C.C.C.C.C.C.C.C.C.C.C.C.C.C.C.C.C.C.C.C.C.C.C.C.C.",
"C.C.C.C.C.C.C.C.C.C.C.C.C.C.C.C.C.C.C.C.C.C.C.C.C.C.C.C.C.C.C.C.",
"C.C.C.C.C.C.C.C.                            C.C.C.C.C.C.C.C.C.C.",
"C.C.C.C.C.C.C.C.g c V C C C C C C C C B j f C.C.C.C.C.C.C.C.C.C.",
"C.C.C.C.C.C.  y ~ ;.i.g.g.g.g.g.g.g.h.9.=.J #   C.C.C.C.C.C.C.C.",
"C.C.C.C.C.C.d H :.7.N.V.V.V.V.V.V.V.V.z.3.Q A d C.C.C.C.C.C.C.C.",
"C.C.C.C.  f ~ :.x.M.V.V.V.V.V.V.V.V.V.V.N.a.=.K :   C.C.C.C.C.C.",
"C.C.C.C.  h -.7.M.V.V.V.V.V.V.V.V.V.V.V.V.z.3.R >   C.C.C.C.C.C.",
"C.C.C.C.  b y.B.V.V.V.V.V.V.V.V.V.V.V.V.V.V.V.o.2   C.C.C.C.C.C.",
"C.C.C.C.  M p.V.V.V.V.e.^ } c.V.V.V.V.t.( _ v.O.2   C.C.C.C.C.C.",
"C.C.C.C.  M p.V.V.V.V.) ; v w.V.V.V.V.X.5 a 6.@.2   C.C.C.C.C.C.",
"C.C.C.C.  M p.V.V.V.V./ O s 0.V.V.V.V. .% e 5.@.2   C.C.C.C.C.C.",
"C.C.C.C.  M p.V.V.V.V.^ X p 0.V.V.V.V.| @ 0 5.@.2   C.C.C.C.C.C.",
"C.C.C.C.  M p.V.V.V.V. .x G r.V.V.V.V.%.N F w.@.2   C.C.C.C.C.C.",
"C.C.C.C.  M k.V.V.V.V.c.w.r.M.V.V.V.V.v.w.r.V.$.2   C.C.C.C.C.C.",
"C.C.C.C.  v ^ $.v.V.V.V.V.V.V.V.V.V.V.V.V.g. .P <   C.C.C.C.C.C.",
"C.C.C.C.C.C.+ S j.V.V.V.V.V.V.V.V.V.V.V.V.$.9 @ C.C.C.C.C.C.C.C.",
"C.C.C.C.C.C.  l ( #.a.l.V.V.V.V.V.n.f.8.X.P ;   C.C.C.C.C.C.C.C.",
"C.C.C.C.C.C.C.C.$ n ` ,.b.V.V.V.V.d.>.T 8 % C.C.C.C.C.C.C.C.C.C.",
"C.C.C.C.C.C.C.C.  u *.2.n.V.V.V.V.f.<.Y &   C.C.C.C.C.C.C.C.C.C.",
"C.C.C.C.C.C.C.C.  l q.n.V.V.V.V.V.B.B.{ -   C.C.C.C.C.C.C.C.C.C.",
"C.C.C.C.C.C.C.C.  z r.V.V.V.V.V.V.V.V. .-   C.C.C.C.C.C.C.C.C.C.",
"C.C.C.C.C.C.      k r.V.V.V.V.V.V.V.V. .-   C.C.C.C.C.C.C.C.C.C.",
"C.C.C.C.C.C.  o 7 D u.V.V.V.V.V.V.V.V. .-   C.C.C.C.C.C.C.C.C.C.",
"C.C.C.C.C.C.  t E ] B.V.V.V.V.V.V.V.V...-   C.C.C.C.C.C.C.C.C.C.",
"C.C.C.C.C.C.  i L W +.$.$.4.s.z.V.g.&.I -   C.C.C.C.C.C.C.C.C.C.",
"C.C.C.C.C.C.C.C., 1 3 4 < m ' 1.V.X.q 2 C.C.C.C.C.C.C.C.C.C.C.C.",
"C.C.C.C.C.C.C.C.          w K ! m.[ %   C.C.C.C.C.C.C.C.C.C.C.C.",
"C.C.C.C.C.C.C.C.C.C.C.C.C.C.: Z u.| =   C.C.C.C.C.C.C.C.C.C.C.C.",
"C.C.C.C.C.C.C.C.C.C.C.C.C.C.  r ..U *   C.C.C.C.C.C.C.C.C.C.C.C.",
"C.C.C.C.C.C.C.C.C.C.C.C.C.C.  . 5 6 C.C.C.C.C.C.C.C.C.C.C.C.C.C.",
"C.C.C.C.C.C.C.C.C.C.C.C.C.C.        C.C.C.C.C.C.C.C.C.C.C.C.C.C."
};
