/* XPM */
static char *result[] = {
/* columns rows colors chars-per-pixel */
"32 32 133 2 ",
"   c black",
".  c #060607",
"X  c #070707",
"o  c #070708",
"O  c #070808",
"+  c gray3",
"@  c #090909",
"#  c #090A0A",
"$  c gray4",
"%  c #0B0B0B",
"&  c #101010",
"*  c #151718",
"=  c #161819",
"-  c #17191A",
";  c #171A1B",
":  c #181A1B",
">  c #191B1B",
",  c #1B1B1B",
"<  c #1C1B1B",
"1  c gray11",
"2  c #1C1D1D",
"3  c #1D1E1E",
"4  c #1E1E1E",
"5  c #1E2122",
"6  c #1F2123",
"7  c #202224",
"8  c #222526",
"9  c #222527",
"0  c gray15",
"q  c #262627",
"w  c #272727",
"e  c #252829",
"r  c #272829",
"t  c gray16",
"y  c gray17",
"u  c #2C2C2C",
"i  c #2D2D2D",
"p  c #343434",
"a  c #363A3C",
"s  c #3D3F41",
"d  c #3B4043",
"f  c #3E4143",
"g  c gray26",
"h  c #444444",
"j  c gray30",
"k  c #8A979D",
"l  c #8C989F",
"z  c #929FA6",
"x  c #9EAAB0",
"c  c #AEAEAE",
"v  c #A1AEB4",
"b  c #A6B3B9",
"n  c #A4B3BB",
"m  c #A5B4BC",
"M  c #A7B6BE",
"N  c #A8B5BB",
"B  c gray69",
"V  c gray70",
"C  c gray71",
"Z  c #BBBDBE",
"A  c #ABBAC2",
"S  c #AEBBC2",
"D  c #B7C7CE",
"F  c #B8C7CF",
"G  c #BBC9CF",
"H  c #BFCDD4",
"J  c #C0C0C0",
"K  c #C1C1C1",
"L  c #C1C3C3",
"P  c #C6C6C6",
"I  c gray78",
"U  c #CBCBCB",
"Y  c gray81",
"T  c #C1CED5",
"R  c #C0CFD6",
"E  c #C1D0D7",
"W  c #C3D2DA",
"Q  c #C6D5DD",
"!  c #D0D0D0",
"~  c gray82",
"^  c #D2D2D2",
"/  c #D7D7D7",
"(  c #D7DADC",
")  c gainsboro",
"_  c #DEDFDF",
"`  c #CAD9E1",
"'  c #D5E5ED",
"]  c #D6E5ED",
"[  c #D7E7EF",
"{  c #D8E7EF",
"}  c #DAE7EE",
"|  c #DBE9EF",
" . c #DCE9F0",
".. c #E1E1E1",
"X. c #E2E1E1",
"o. c #E2E2E2",
"O. c gray89",
"+. c #E3E5E6",
"@. c gray90",
"#. c #E6E6E6",
"$. c #E6E6E7",
"%. c #E6E7E7",
"&. c #E7E7E7",
"*. c #E7E9EA",
"=. c #EAE9E9",
"-. c gray92",
";. c #ECECEC",
":. c gray93",
">. c #EEEEEE",
",. c #EFEFEF",
"<. c #E8EEF0",
"1. c #F3F3F3",
"2. c #F3F5F6",
"3. c #F4F4F4",
"4. c #F4F6F7",
"5. c #F3F6F8",
"6. c #F5F8F9",
"7. c #F5F9FA",
"8. c #F7F9FA",
"9. c #F7FAFC",
"0. c #F8F8F8",
"q. c #F9F9F9",
"w. c #FAFCFD",
"e. c #FBFDFE",
"r. c gray99",
"t. c #FDFDFD",
"y. c #FCFDFE",
"u. c #FDFEFE",
"i. c #FDFFFF",
"p. c #FEFEFE",
"a. c #FEFFFF",
"s. c white",
"d. c None",
/* pixels */
"d.d.d.d.d.d.d.d.                            d.d.d.d.d.d.d.d.d.d.",
"d.d.d.d.d.d.d.d.- : 2 4 4 4 4 4 4 4 4 3 > ; d.d.d.d.d.d.d.d.d.d.",
"d.d.d.d.d.d.  . l D ( X..............._ G m 6   d.d.d.d.d.d.d.d.",
"d.d.d.d.d.d.= 6 b [ 9.s.s.s.s.s.s.s.s.a. .W a * d.d.d.d.d.d.d.d.",
"d.d.d.d.  X k F <.w.p.s.s.s.s.s.s.s.s.s.w.5.H n 5   d.d.d.d.d.d.",
"d.d.d.d.  o x { 7.s.s.s.s.s.s.s.s.s.s.s.s.y.| R 7   d.d.d.d.d.d.",
"d.d.d.d.  + Z i.p.s.s.s.s.s.s.s.s.s.s.s.s.s.y.+.0   d.d.d.d.d.d.",
"d.d.d.d.  + J s.s.s.s.p.&.o.q.s.s.s.s.t.#.O.r.=.w   d.d.d.d.d.d.",
"d.d.d.d.  + J s.s.s.s.3.j w ~ s.s.s.s.,.h i ) -.w   d.d.d.d.d.d.",
"d.d.d.d.  + J s.s.s.s.1.p @ U s.s.s.s.;.t & / ;.w   d.d.d.d.d.d.",
"d.d.d.d.  + J s.s.s.s.1.p @ U s.s.s.s.;.t & / ;.w   d.d.d.d.d.d.",
"d.d.d.d.  + J s.s.s.s.3.j w ~ s.s.s.s.,.h i ) -.w   d.d.d.d.d.d.",
"d.d.d.d.  + K s.s.s.s.p.&.o.q.s.s.s.s.t.#.O.t.-.w   d.d.d.d.d.d.",
"d.d.d.d.  + c @.0.s.s.s.s.s.s.s.s.s.s.s.s.p.&.Y 0   d.d.d.d.d.d.",
"d.d.d.d.d.d.1 0 U s.s.s.s.s.s.s.s.s.s.s.s.,.g , d.d.d.d.d.d.d.d.",
"d.d.d.d.d.d.  X B @.2.w.p.s.s.s.s.s.w.8.$.~ w   d.d.d.d.d.d.d.d.",
"d.d.d.d.d.d.d.d.1 q N ' 7.s.s.s.s.y.} W s < d.d.d.d.d.d.d.d.d.d.",
"d.d.d.d.d.d.d.d.  O v ] 7.s.s.s.s.y.} E 8   d.d.d.d.d.d.d.d.d.d.",
"d.d.d.d.d.d.d.d.  % L i.p.s.s.s.s.s.e.*.y   d.d.d.d.d.d.d.d.d.d.",
"d.d.d.d.d.d.d.d.  % P s.s.s.s.s.s.s.s.:.u   d.d.d.d.d.d.d.d.d.d.",
"d.d.d.d.d.d.d.d.  % P s.s.s.s.s.s.s.s.;.u   d.d.d.d.d.d.d.d.d.d.",
"d.d.d.d.d.d.d.d.  % P s.s.s.s.s.s.s.s.;.u   d.d.d.d.d.d.d.d.d.d.",
"d.d.d.d.d.d.d.d.  % I s.s.s.s.s.s.s.s.>.u   d.d.d.d.d.d.d.d.d.d.",
"d.d.d.d.d.d.d.d.  % V @.q.s.s.s.w.8.%.^ y   d.d.d.d.d.d.d.d.d.d.",
"d.d.d.d.d.d.d.d.d.d.1 t ! s.s.u. .Q f , d.d.d.d.d.d.d.d.d.d.d.d.",
"d.d.d.d.d.d.d.d.d.d.  $ C @.4.6.T M 9   d.d.d.d.d.d.d.d.d.d.d.d.",
"d.d.d.d.d.d.d.d.d.d.d.d.1 r S ` d * d.d.d.d.d.d.d.d.d.d.d.d.d.d.",
"d.d.d.d.d.d.d.d.d.d.d.d.  # z A e   d.d.d.d.d.d.d.d.d.d.d.d.d.d.",
"d.d.d.d.d.d.d.d.d.d.d.d.d.d.- : d.d.d.d.d.d.d.d.d.d.d.d.d.d.d.d.",
"d.d.d.d.d.d.d.d.d.d.d.d.d.d.    d.d.d.d.d.d.d.d.d.d.d.d.d.d.d.d.",
"d.d.d.d.d.d.d.d.d.d.d.d.d.d.d.d.d.d.d.d.d.d.d.d.d.d.d.d.d.d.d.d.",
"d.d.d.d.d.d.d.d.d.d.d.d.d.d.d.d.d.d.d.d.d.d.d.d.d.d.d.d.d.d.d.d."
};
