/* XPM */
static char *result[] = {
/* columns rows colors chars-per-pixel */
"64 32 88 1 ",
"  c black",
". c #000001",
"X c #010101",
"o c #010102",
"O c #010203",
"+ c #020203",
"@ c #020304",
"# c #020305",
"$ c #030306",
"% c #030406",
"& c #030407",
"* c #040407",
"= c #040507",
"- c #040508",
"; c #050609",
": c #05060A",
"> c #06070B",
", c #06080C",
"< c #07080D",
"1 c #08090F",
"2 c #080A10",
"3 c #090B11",
"4 c #090B12",
"5 c #0A0C13",
"6 c #0B0D15",
"7 c #0C0E16",
"8 c #0D0F18",
"9 c #0D0F19",
"0 c #0E101B",
"q c #0E111B",
"w c #0F121D",
"e c #10131E",
"r c #111421",
"t c #111522",
"y c #121522",
"u c #121623",
"i c #131624",
"p c #131725",
"a c #141726",
"s c #151928",
"d c #151929",
"f c #161B2B",
"g c #171B2B",
"h c #171B2C",
"j c #181C2D",
"k c #191D2F",
"l c #191E30",
"z c #191E31",
"x c #1B2033",
"c c #1B2034",
"v c #1C2135",
"b c #1C2136",
"n c #1D2237",
"m c #1D2238",
"M c #1D2338",
"N c #1E2339",
"B c #1F243B",
"V c #1F253B",
"C c #1F253C",
"Z c #20263D",
"A c #20263E",
"S c #222841",
"D c #222842",
"F c #232A44",
"G c #242A45",
"H c #252B46",
"J c #262D48",
"K c #262D49",
"L c #272E4A",
"P c #29304F",
"I c #29314F",
"U c #2A3150",
"Y c #2A3250",
"T c #2A3251",
"R c #2B3352",
"E c #2C3454",
"W c #2C3455",
"Q c #2C3555",
"! c #2D3556",
"~ c #2D3557",
"^ c #2D3657",
"/ c #2F3759",
"( c #2F375A",
") c #2F385B",
"_ c #30385B",
"` c #30395C",
"' c #30395D",
"] c #313A5E",
/* pixels */
"                                                                ",
"                                                                ",
"                                                                ",
"                                                                ",
"        ,hGB6+                                                  ",
"       %D`]]!z$                                                 ",
"       w)]]]]'p                                                 ",
"      +b]]]]]]K%                                                ",
"      :T]]]]]]I-   $0ww3                                        ",
"      :T]]]]]]P-  :N)''I4                                       ",
"      :T]]]]]]P- @Z]]]]]bX                                      ",
"      :R]]]]]]P- r/]]]]]L-                                      ",
"      #V]]]]]]P- c]]]]]]`i                                      ",
"       y]]]]]]I- x]]]]]]]d                                      ",
"       7E]`)_]A@ x]]]]]]]s                                      ",
"       XlFr8qg>  x]]]]]]]d                                      ",
"        oo       x]]]]]])t                                      ",
"         %<<<<:X c]]]]]]J%                                      ",
"        &ZWEEWH* k]]]]]]SO                                      ",
"        2^]]]]I- >zmnnnv5                                       ",
"        1Q]]]]P-                                                ",
"        +C]]]]P= .XXXXX.                                        ",
"         s`]](jX uDSSSDa                                        ",
"         $eyyq+  c]]]]]N                                        ",
"                 x]]]]]M                                        ",
"                 c]]]](p                                        ",
"                 u~]]]U;                                        ",
"                 O9SYUfo                                        ",
"                                                                ",
"                                                                ",
"                                                                ",
"                                                                "
};
