/* XPM */
static char *result[] = {
/* columns rows colors chars-per-pixel */
"32 32 9 1 ",
"  c #584B44",
". c #6D6666",
"X c #1B945F",
"o c #35A948",
"O c #0C896D",
"+ c #8B8484",
"@ c #BAB0B0",
"# c #9EDF8A",
"$ c None",
/* pixels */
"$$$$$$$$$$$$$$$@@@$$$$$$$$$$$$$$",
"$$$$$$$$$$++@  +++@  $$$$$$$$$$$",
"$$$$$$$@ +++@  +++@ ++@ $$$$$$$$",
"$$$$$ ++@ .++@ +++  ++@  +$$$$$$",
"$$$$  .++  .+@ ... ++@  ++@$$$$$",
"$$$+@  .+@  .ooooo.+@ ++++@ $$$$",
"$$ +++@ ++oo#######oo .+@@ +@$$$",
"$$ ..+@oo###ooooooo###o@  +++@$$",
"$    . o#oooXXXXXXXooo#oo.+++ $$",
"$  +@ ##oXXXoooooooXXXo##.++  $$",
"$ .++@ooXXoo#######ooXXoo#.  +@$",
"$ ..++oXXo##ooooooo##oXXoo +++@$",
"++    Xoo#oooXXXXXooo#ooXo.+++ $",
".++  XXo#ooXXXXXXXXXoo#oXXo.  @@",
" .+@@Xo#oXXXXoooooXXXXo#oXX +++@",
"  .+@o#ooXXXo#####oXXXoo#oX.+++ ",
"     o#oXXXo#ooooo#oXXXo#oX.++  ",
".++@ #ooXXo#ooXXXoo#oXXoo#o   @@",
" +++@#oXXo#ooXOXOXoo#oXXo#o.+++@",
" .++@#oXXo#oXOXoXOXo#oXXo#o.+++@",
" . . #oXXo#oXXo#oXXo#oXXo#o ..  ",
"     #oXXo#oXOXoXOXo#oXXo#o+  @@",
"++@@ #oXXo#ooXOXOXoo#oXXo#o++++@",
".+++@#ooXXo#ooXXXoo#oXXoo#o..+  ",
"..+  o#oXXXo#ooooo#oXXXo#oX    @",
" .   o#ooXXXo#####oXXXoo#oX++@  ",
"   @@Xo#oXXXXoooooXXXXo#oXX+++@ ",
" +++@XXo#ooXXXXXXXXXoo#oXXo.+++@",
" ++++oXoo#oooXXXXXooo#ooXo# .+  ",
"     ooXXo##ooooooo##oXXoo#   @@",
"+++@ #ooXXoo#######ooXXoo#o.+++@",
"..++ o##oXXXoooooooXXXo##oX .++ "
};
