/* XPM */
static char *result[] = {
/* columns rows colors chars-per-pixel */
"32 32 9 1 ",
"  c #584B44",
". c #6D6666",
"X c #1B945F",
"o c #35A948",
"O c #0C896D",
"+ c #8B8484",
"@ c #BAB0B0",
"# c #9EDF8A",
"$ c None",
/* pixels */
"$$$$$$$$$$$$$$$@@@$$$$$$$$$$$$$$",
"$$$$$$$$$$++@  +++@  $$$$$$$$$$$",
"$$$$$$$@ +++@  +++@ ++@ $$$$$$$$",
"$$$$$ ++@ .++@ +++  ++@  +$$$$$$",
"$$$$  .++  .+@ ... ++@  ++@$$$$$",
"$$$+@  .+@  .ooooo.+@ ++++@ $$$$",
"$$ +++@ ++ooXXXXXXXoo .+@@ +@$$$",
"$$ ..+@ooXXXoooooooXXXo@  +++@$$",
"$    . XXooo#######oooXXo.+++ $$",
"$  +@ XXoo##ooooooo##ooXX.++  $$",
"$ .++@Xo##ooXXXXXXXoo##oXX.  +@$",
"$ ..++o#ooXXOXXXXXOXXoo#oX +++@$",
"++    #ooXOXXoooooXXOXoo#o.+++ $",
".++  #ooXXXoo#####ooXXXoo#o.  @@",
" .+@@#oXXoo##ooooo##ooXXo#o +++@",
"  .+@oXOXo#ooXXXXXoo#oXOXo#.+++ ",
"     oXXo#ooXOXXXOXoo#oXXo#.++  ",
".++@ XOXo#oXXXoooXXXo#oXOXo   @@",
" +++@XXo#oXOXo###oXOXo#oXXo.+++@",
" .++@XXo#oXXo#ooo#oXXo#oXXo.+++@",
" . . XXo#oXXo#ooo#oXXo#oXXo ..  ",
"     XXo#oXXo#ooo#oXXo#oXXo+  @@",
"++@@ XXo#oXOXo###oXOXo#oXXo++++@",
".+++@XOXo#oXXXoooXXXo#oXOXo..+  ",
"..+  oXXo#ooXOXXXOXoo#oXXo#    @",
" .   oXOXo#ooXXXXXoo#oXOXo#++@  ",
"   @@#oXXoo##ooooo##ooXXo#o+++@ ",
" +++@#ooXXXoo#####ooXXXoo#o.+++@",
" ++++o#ooXOXXoooooXXOXoo#oX .+  ",
"     Xo#ooXXOXXXXXOXXoo#oXX   @@",
"+++@ XXo##ooXXXXXXXoo##oXXo.+++@",
"..++ oXXoo##ooooooo##ooXXoo .++ "
};
