/* XPM */
static char *result[] = {
/* columns rows colors chars-per-pixel */
"32 32 9 1 ",
"  c #584B44",
". c #6D6666",
"X c #1B945F",
"o c #35A948",
"O c #0C896D",
"+ c #8B8484",
"@ c #BAB0B0",
"# c #9EDF8A",
"$ c None",
/* pixels */
"$$$$$$$$$$$$$$$@@@$$$$$$$$$$$$$$",
"$$$$$$$$$$++@  +++@  $$$$$$$$$$$",
"$$$$$$$@ +++@  +++@ ++@ $$$$$$$$",
"$$$$$ ++@ .++@ +++  ++@  +$$$$$$",
"$$$$  .++  .+@ ... ++@  ++@$$$$$",
"$$$+@  .+@  .XXXXX.+@ ++++@ $$$$",
"$$ +++@ ++XXoooooooXX .+@@ +@$$$",
"$$ ..+@XXooo#######oooX@  +++@$$",
"$    . Xo###ooooooo###oXX.+++ $$",
"$  +@ oo#oooXXXXXXXooo#oo.++  $$",
"$ .++@o#ooXXXXXXXXXXXoo#oo.  +@$",
"$ ..++#oXXXXXoooooXXXXXo#o +++@$",
"++    oXXXXoo#####ooXXXXo#.+++ $",
".++  oXXXoo##ooooo##ooXXXo#.  @@",
" .+@@oXXoo#ooXXXXXoo#ooXXoo +++@",
"  .+@XXXo#oXXXXXXXXXo#oXXXo.+++ ",
"     XXo#oXOXXoooXXOXo#oXXo.++  ",
".++@ XXo#XOXoo###ooXOX#oXXX   @@",
" +++@Xo#oXXXo#ooo#oXXXo#oXX.+++@",
" .++@Xo#XOXo#oXXXo#oXOX#oXX.+++@",
" . . Xo#XOXo#oXOXo#oXOX#oXX ..  ",
"     Xo#XOXo#oXXXo#oXOX#oXX+  @@",
"++@@ Xo#XOXXo#ooo#oXXOX#oXX++++@",
".+++@XXo#XOXoo###ooXOX#oXXX..+  ",
"..+  XXo#XOOXXoooXXOOX#oXXo    @",
" .   XXXo#XOOXXXXXOOX#oXXXo++@  ",
"   @@oXXoo#XXOOOOOXX#ooXXoo+++@ ",
" +++@oXXXoo##XXXXX##ooXXXo#.+++@",
" ++++#oXXXXoo#####ooXXXXo#o .+  ",
"     o#oXXXXXoooooXXXXXo#oo   @@",
"+++@ oo#ooXXXXXXXXXXXoo#ooX.+++@",
"..++ Xoo#oooXXXXXXXooo#ooXO .++ "
};
