/* XPM */
static char *result[] = {
/* columns rows colors chars-per-pixel */
"32 32 9 1 ",
"  c black",
". c #584B44",
"X c #6D6666",
"o c #1B945F",
"O c #35A948",
"+ c #8B8484",
"@ c #BAB0B0",
"# c #9EDF8A",
"$ c None",
/* pixels */
"$$$$$$$$$$$$$$$@@@$$$$$$$$$$$$$$",
"$$$$$$$$$$++@..+++@..$$$$$$$$$$$",
"$$$$$$$@.+++@..+++@.++@.$$$$$$$$",
"$$$$$.++@.X++@.+++..++@..+$$$$$$",
"$$$$..X++..X+@.XXX.++@..++@$$$$$",
"$$$+@..X+@..X     X+@.++++@.$$$$",
"$$.+++@.++  OOOOOOO  .X+@@.+@$$$",
"$$.XX+@  OOO#######OOO @..+++@$$",
"$....X. O###OOOOOOO###O  X+++.$$",
"$..+@.OO#OOO       OOO#OOX++..$$",
"$.X++@O#OO           OO#OOX..+@$",
"$.XX++#O               O#O.+++@$",
"++....O       ooooo      #X+++.$",
"X++..O      ooOOOOOoo    O#X..@@",
".X+@@O     oOO#####OOo   OO.+++@",
"..X+@     oOO#OOOOO#OOo   OX+++.",
".....    oOO#OoooooO#OOo  OX++..",
"X++@.    oO#Ooo   ooO#Oo   ...@@",
".+++@   oO#Ooo     ooO#Oo  X+++@",
".X++@   oO#Oo       oO#Oo  X+++@",
".X.X.   oO#Oo       oO#Oo  .XX..",
".....   oO#Oo       oO#Oo  +..@@",
"++@@.   oO#Ooo     ooO#Oo  ++++@",
"X+++@    oO#Ooo   ooO#Oo   XX+..",
"XX+..    oOO#OoooooO#OOo  O....@",
".X...     oOO#OOOOO#OOo   O++@..",
"...@@O     oOO#####OOo   OO+++@.",
".+++@O      ooOOOOOoo    O#X+++@",
".++++#O       ooooo      #O.X+..",
".....O#O               O#OO...@@",
"+++@.OO#OO           OO#OO X+++@",
"XX++. OO#OOO       OOO#OO  .X++."
};
