/* XPM */
static char *result[] = {
/* columns rows colors chars-per-pixel */
"32 32 5 1 ",
"  c #211F30",
". c #B22E20",
"X c #D2612F",
"o c #E68D41",
"O c #F2BC7E",
/* pixels */
"  XXooooooOOXXXXXX..XXooooooOO  ",
"  XXooooooOOXXXXXX..XXooooooOO  ",
"  XXooooooOOXXXXXX..XXooooooOO  ",
"  XXooooooOOXXXXXX..XXooooooOO  ",
"  XXooooooOOXXXXXX..XXooooooOO  ",
"  XXooooooOOXXXXXX..XXooooooOO  ",
"  XXooooooOOXXXXXX..XXooooooOO  ",
"  XXooooooOOXXXXXX..XXooooooOO  ",
"  XXooooooOOXXXXXX..XXooooooOO  ",
"  XXooooooOOXXXXXX..XXooooooOO  ",
"  XXooooooOOXXXXXX..XXooooooOO  ",
"  XXooooooOOXXXXXX..XXooooooOO  ",
"  XXooooooOOXXXXXX..XXooooooOO  ",
"  XXooooooOOXXXXXX..XXooooooOO  ",
"  XXooooooOOXXXXXX..XXooooooOO  ",
"  XXooooooOOXXXXXX..XXooooooOO  ",
"  XXooooooOOXXXXXX..XXooooooOO  ",
"  XXooooooOOXXXXXX..XXooooooOO  ",
"  XXooooooOOXXXXXX..XXooooooOO  ",
"  XXooooooOOXXXXXX..XXooooooOO  ",
"  XXooooooOOXXXXXX..XXooooooOO  ",
"  XXooooooOOXXXXXX..XXooooooOO  ",
"  XXooooooOOXXXXXX..XXooooooOO  ",
"  XXooooooOOXXXXXX..XXooooooOO  ",
"  XXooooooOOXXXXXX..XXooooooOO  ",
"  XXooooooOOXXXXXX..XXooooooOO  ",
"  XXooooooOOXXXXXX..XXooooooOO  ",
"  XXooooooOOXXXXXX..XXooooooOO  ",
"  XXooooooOOXXXXXX..XXooooooOO  ",
"  XXooooooOOXXXXXX..XXooooooOO  ",
"  XXooooooOOXXXXXX..XXooooooOO  ",
"  XXooooooOOXXXXXX..XXooooooOO  "
};
