/* XPM */
static char *result[] = {
/* columns rows colors chars-per-pixel */
"32 32 6 1 ",
"  c #211F30",
". c #B22E20",
"X c #D2612F",
"o c #E68D41",
"O c #F2BC7E",
"+ c #FBDFB1",
/* pixels */
"                                ",
"                                ",
"  ooOOOOOOOOOOOOOOOOOOOOOOOO++  ",
"  ooOOOOOOOOOOOOOOOOOOOOOOOO++  ",
"  XXooooooooooooooooooooooooOO  ",
"  XXooooooooooooooooooooooooOO  ",
"  XXooooooooooooooooooooooooOO  ",
"  XXooooooooooooooooooooooooOO  ",
"  XXooooooooooooooooooooooooOO  ",
"  XXooooooooooooooooooooooooOO  ",
"  XXooooooXXXXXXXXXXXXooooooOO  ",
"  XXooooooXXXXXXXXXXXXooooooOO  ",
"  XXooooooOO........XXooooooOO  ",
"  XXooooooOO........XXooooooOO  ",
"  XXooooooOOXXXXXX..XXooooooOO  ",
"  XXooooooOOXXXXXX..XXooooooOO  ",
"  XXooooooOOXXXXXX..XXooooooOO  ",
"  XXooooooOOXXXXXX..XXooooooOO  ",
"  XXooooooOOXXXXXX..XXooooooOO  ",
"  XXooooooOOXXXXXX..XXooooooOO  ",
"  XXooooooOOXXXXXX..XXooooooOO  ",
"  XXooooooOOXXXXXX..XXooooooOO  ",
"  XXooooooOOXXXXXX..XXooooooOO  ",
"  XXooooooOOXXXXXX..XXooooooOO  ",
"  XXooooooOOXXXXXX..XXooooooOO  ",
"  XXooooooOOXXXXXX..XXooooooOO  ",
"  XXooooooOOXXXXXX..XXooooooOO  ",
"  XXooooooOOXXXXXX..XXooooooOO  ",
"  XXooooooOOXXXXXX..XXooooooOO  ",
"  XXooooooOOXXXXXX..XXooooooOO  ",
"  XXooooooOOXXXXXX..XXooooooOO  ",
"  XXooooooOOXXXXXX..XXooooooOO  "
};
