/* XPM */
static char *result[] = {
/* columns rows colors chars-per-pixel */
"32 32 6 1 ",
"  c #211F30",
". c #B22E20",
"X c #D2612F",
"o c #E68D41",
"O c #F2BC7E",
"+ c #FBDFB1",
/* pixels */
"                                ",
"                                ",
"OOOOOOOOOOOOOOOOOOOOOOOOOOOO++  ",
"OOOOOOOOOOOOOOOOOOOOOOOOOOOO++  ",
"ooooooooooooooooooooooooooooOO  ",
"ooooooooooooooooooooooooooooOO  ",
"ooooooooooooooooooooooooooooOO  ",
"ooooooooooooooooooooooooooooOO  ",
"ooooooooooooooooooooooooooooOO  ",
"ooooooooooooooooooooooooooooOO  ",
"XXXXXXXXXXXXXXXXXXXXXXooooooOO  ",
"XXXXXXXXXXXXXXXXXXXXXXooooooOO  ",
"....................XXooooooOO  ",
"....................XXooooooOO  ",
"XXXXXXXXXXXXXXXXXX..XXooooooOO  ",
"XXXXXXXXXXXXXXXXXX..XXooooooOO  ",
"XXXXXXXXXXXXXXXXXX..XXooooooOO  ",
"XXXXXXXXXXXXXXXXXX..XXooooooOO  ",
"XXXXXXXXXXXXXXXXXX..XXooooooOO  ",
"XXXXXXXXXXXXXXXXXX..XXooooooOO  ",
"OOOOOOOOOOOOOOOOOOOOXXooooooOO  ",
"OOOOOOOOOOOOOOOOOOOOXXooooooOO  ",
"ooooooooooooooooooooooooooooOO  ",
"ooooooooooooooooooooooooooooOO  ",
"ooooooooooooooooooooooooooooOO  ",
"ooooooooooooooooooooooooooooOO  ",
"ooooooooooooooooooooooooooooOO  ",
"ooooooooooooooooooooooooooooOO  ",
"XXXXXXXXXXXXXXXXXXXXXXXXXXXXoo  ",
"XXXXXXXXXXXXXXXXXXXXXXXXXXXXoo  ",
"                                ",
"                                "
};
