/* XPM */
static char *result[] = {
/* columns rows colors chars-per-pixel */
"32 32 8 1 ",
"  c #843346",
". c #A14744",
"X c #A7624A",
"o c #B96E54",
"O c #BE8F61",
"+ c #CF9E6E",
"@ c #E4C997",
"# c None",
/* pixels */
"#                              #",
" .oooo....oo....ooo......ooooo. ",
" oOOOOOOOOOO++++++OOOOOOOOOO++o ",
" oOO++++++OOOOOOOOOO++++++OOOOo ",
" .++OOOOOO++OOOOOO++OOOOOO++OO. ",
" .OO+++++oOO++++++OO++oo++OO++. ",
" .+++++++@++OOOOOO+++@++o+++OO. ",
" .+++++++++++++++++++@++o+++++. ",
" o++OOOOOO++++++++++OO@@OO++++. ",
" oOOOOooOOOO++++++OOOOOOOOOO++o ",
" oOO+o++@+OOOOOOOOOO++++++OOOOo ",
" .+++o++@+++OOOOOO++++++++++OOo ",
" .++OO@@OO++++++++++OOOOOO++++o ",
" .OO++++++OO++++++OO++++++OO++o ",
" .++++++++++OXXXXXo+++++++++OO. ",
" o++++++++++o      o++++++++++. ",
" o++++++++++@      @++++++++++. ",
" .++OOOOOO+++@@@@@@+OOOOOO++++. ",
" .OOOOOOOOOO++++++OOOOOOOOOO++o ",
" .OO++++++OOOOOOOOOO++++++OOOOo ",
" o++OOOOOO++OOOOOO++OOOOOO++OO. ",
" oOO++++++OO++++++OO++o+++OO++. ",
" .++++++++++OOOOOO++++@+++++OO. ",
" .+++++++++++o+++++++++++++oo+. ",
" .++OOOOOO+++@++++++OOOOOO@++o. ",
" .OOOOOOOOOO++++++OOOOOOOO@++oo ",
" .OO++++++OOOOOOOOOO++++++O@@Oo ",
" o+oo+++++++OOOOOO++++++++++OOo ",
" oO++@OOOO++++++++++OOOOOO++++o ",
" oOO+@++++OO++++++OO++++++OO++o ",
" .oo......oooo.....oooo....ooo. ",
"#                              #"
};
