/* XPM */
static char *result[] = {
/* columns rows colors chars-per-pixel */
"32 32 8 1 ",
"  c #211F30",
". c #9C1B4D",
"X c #CC3048",
"o c #28860F",
"O c #72A11D",
"+ c #F18B72",
"@ c #A4CC42",
"# c None",
/* pixels */
"################################",
"################################",
"################################",
"################################",
"################################",
"################################",
"################################",
"################################",
"#############    ###############",
"############# @@O ##############",
"############# O @ ##############",
"############# o o@ #############",
"############ Oo  oO ############",
"############ o ## .. ###########",
"########### .. # XXXX ##########",
"########## XXX. .XX++X #########",
"######### X++X. .XX++X #########",
"######### X++X. .XX++X #########",
"######### X++X. .XXXXX #########",
"######### XXXX. .XXXXX #########",
"######### XXXX. ..XXX. #########",
"######### .XX... .... ##########",
"########## .... #    ###########",
"###########    #################",
"################################",
"################################",
"################################",
"################################",
"################################",
"################################",
"################################",
"################################"
};
