/* XPM */
static char *result[] = {
/* columns rows colors chars-per-pixel */
"32 32 79 1 ",
"  c #0D0C0B",
". c #11100F",
"X c #151412",
"o c #1C1B1A",
"O c #221F1B",
"+ c #24211D",
"@ c #2A241F",
"# c #262522",
"$ c #2A2621",
"% c #2E2A24",
"& c #302C25",
"* c #322E28",
"= c #35322B",
"- c #3B342D",
"; c #393630",
": c #3D3A35",
"> c #40372E",
", c #423C34",
"< c #464036",
"1 c #494236",
"2 c #46413B",
"3 c #4B463D",
"4 c #524A3F",
"5 c #615A3E",
"6 c #6D6630",
"7 c #4A4640",
"8 c #4E4A43",
"9 c #534D44",
"0 c #534F48",
"q c #575147",
"w c #5A5246",
"e c #56524A",
"r c #5B554C",
"t c #5B5750",
"y c #605648",
"u c #645948",
"i c #635D54",
"p c #6A6342",
"a c #676056",
"s c #6A6255",
"d c #6B645B",
"f c #726A5D",
"g c #7A6F5D",
"h c #746D62",
"j c #777167",
"k c #797163",
"l c #7D766B",
"z c #7F786D",
"x c #837A6B",
"c c #887B68",
"v c #837C71",
"b c #898176",
"n c #92897A",
"m c #9D927F",
"M c #988F80",
"N c #9C9382",
"B c #A69A86",
"V c #A0978A",
"C c #A39A8B",
"Z c #A99E8B",
"A c #AFA38E",
"S c #B1A58F",
"D c #ADA393",
"F c #B2A793",
"G c #B5A994",
"H c #B9AD97",
"J c #B5AC9C",
"K c #B9AE9A",
"L c #BDB19E",
"P c #BFB4A1",
"I c #C1B5A2",
"U c #C5B9A6",
"Y c #C6BBA9",
"T c #C9BEAB",
"R c #CDC1AE",
"E c #CFC3B1",
"W c #D2C7B4",
"Q c #D4C9B6",
"! c None",
/* pixels */
"!!!!!!!!!!!!!!:tee7!!!!!!!!!!!!!",
"!!!!!!!!!!!:vbCEEELbi$!!!!!!!!!!",
"!!!!!!!!!7lLQQQEWWQQTVe;!!!!!!!!",
"!!!!!!!!tJEQQEQQWWWWWWLv-!!!!!!!",
"!!!!!!!tJQWWWWWWWWWWWWTFx:!!!!!!",
"!!!!!!tJQWWQWWWWWWWWWWWLSx!!!!!!",
"!!!!!tJQWWWWWWWWWWWWWWWUFB7!!!!!",
"!!!!!bQQWWWWWWWWWWWQWWWEGSk!!!!!",
"!!!!:CQWWWWWWWWWWWWWWWWRGSB3!!!!",
"!!!!eEQQWWWWWWWQWWWWWWWEGSS3!!!!",
"!!!!eEWWWWWWQWWWWWWWWWWRGSS3!!!!",
"!!!!0YWWWQQQQQQTRWWWWWWEGSS3!!!!",
"!!!!!xRQWRFbbbbFHTWWWWWTGSA3!!!!",
"!!!!!zKDKZ<@$$@9GUUWWWWHSSA3!!!!",
"!!!!:d:*mB7=>>>&DFfIEWIFSSA3!!!!",
"!!!!e8%*mHv%,,>*DJaNLLAmAGb-!!!!",
"!!!!!$#hLIC:=,:-JENjmhw*xSf!!!!!",
"!!!!! +jiMTNd**hREKNfs+%,s,!!!!!",
"!!!!!.dl%;nKLDDYWKhrmm@@X!!!!!!!",
"!!!!!!xC&==MGHUEIdhFGm4s:!!!!!!!",
"!!!!!!!r,%,NYEWTs%eKIDxww;!!!!!!",
"!!!!!!!!9fFEQWWIi&=NTSS2##!!!!!!",
"!!!!!!!!!nQRRTCju3;NTSS1+!!!!!!!",
"!!!!!!!!!bRFDfteaaaELSx43!!!!!!!",
"!!!!!!!!!tls,66hlxxYGm-&!!!!!!!!",
"!!!!!!!!!,:hvpyjivIGGn#o!!!!!!!!",
"!!!!!!!!!02hdirlDYLIGiw1!!!!!!!!",
"!!!!!!!!!O78d0iJTTUDsu1$!!!!!!!!",
"!!!!!!!!!!7ieMLKYTl%g1-<@!!!!!!!",
"!!!!!!!!!!!xPKFYTv!!<4uw*!!!!!!!",
"!!!!!!!!!!!dJKPCh!!!=cf9+!!!!!!!",
"!!!!!!!!!!!!00e:!!!!-,.%&!!!!!!!"
};
