/* XPM */
static char *result[] = {
/* columns rows colors chars-per-pixel */
"32 32 99 2 ",
"   c #050504",
".  c #080607",
"X  c #0B0807",
"o  c #070809",
"O  c #0B0B0B",
"+  c #0E100F",
"@  c #11110F",
"#  c #0F1211",
"$  c #121413",
"%  c #191717",
"&  c #161817",
"*  c #161919",
"=  c #1A1C1C",
"-  c #1E221F",
";  c #1D1F20",
":  c #1F2323",
">  c #222523",
",  c #252927",
"<  c #222728",
"1  c #252B29",
"2  c #292D2D",
"3  c #292E31",
"4  c #2E3431",
"5  c #2F3438",
"6  c #343635",
"7  c #353A36",
"8  c #373C3A",
"9  c #3A3E3C",
"0  c #3A413D",
"q  c #3F4240",
"w  c #424543",
"e  c #454A47",
"r  c #464C48",
"t  c #484D4A",
"y  c #4C534F",
"u  c #4D5551",
"i  c #515351",
"p  c #555A57",
"a  c #5A5957",
"s  c #565C59",
"d  c #595E5C",
"f  c #5C625E",
"g  c #5E6261",
"h  c #626463",
"j  c #626965",
"k  c #686966",
"l  c #666C69",
"z  c #6A6E6C",
"x  c #6C726E",
"c  c #6E7371",
"v  c #727473",
"b  c #737976",
"n  c #767C79",
"m  c #7A7E7C",
"M  c #7C817E",
"N  c #7E8381",
"B  c #828684",
"V  c #858A87",
"C  c #878D8A",
"Z  c #8D9491",
"A  c #949695",
"S  c #939A96",
"D  c #969C9A",
"F  c #9A9E9D",
"G  c #9BA19D",
"H  c #9EA2A1",
"J  c #A1A5A4",
"K  c #A2A8A6",
"L  c #A7ADAA",
"P  c #A8AEAC",
"I  c #A8B0AE",
"U  c #ADB3B1",
"Y  c #B0B6B4",
"T  c #B2B8B6",
"R  c #B6BCBA",
"E  c #B9BDBC",
"W  c #B9C2BF",
"Q  c #BDC4C2",
"!  c #C1C5C4",
"~  c #C2C8C6",
"^  c #C6CCC9",
"/  c #C9CDCC",
"(  c #CBD1CF",
")  c #CDD3D0",
"_  c #D1D7D5",
"`  c #D2DAD7",
"'  c #D6DCDA",
"]  c #D9DCDB",
"[  c #DBE1DF",
"{  c #DEE3E1",
"}  c #E3E7E5",
"|  c #E6E9E7",
" . c #E6EBE9",
".. c #E9EEEC",
"X. c #EBF1EF",
"o. c #EDF1F0",
"O. c #F2F5F4",
"+. c #FAFBFB",
"@. c None",
/* pixels */
"@.@.@.@.@.@.@.@.@.@.@.@.@.@.@.@.@.@.@.@.@.@.@.@.@.@.@.@.@.@.@.@.",
"@.@.@.@.@.@.@.@.@.@.@.@.@.@.@.@.@.@.@.@.@.@.@.@.@.@.@.@.@.@.@.@.",
"@.@.@.@.@.@.@.@.@.@.@.@.@.@.@.@.B w @.@.@.@.@.@.@.@.@.@.@.@.@.@.",
"@.@.@.@.@.@.@.@.@.@.@.@.@.@.@.$ F t @.@.@.@.@.@.@.@.@.@.@.@.@.@.",
"@.@.@.@.@.@.@.@.@.@.@.k s o + c T t $ @.@.@.@.@.@.@.@.@.@.@.@.@.",
"@.@.@.@.@.@.@.@.@.@.@.z l g d H D n N 6 : N , @.@.@.@.@.@.@.@.@.",
"@.@.@.@.@.@.@.@.@.@.@.h J / A I P W ! k Z A = @.@.@.@.@.@.@.@.@.",
"@.@.@.@.@.@.@.@.@.@.t Y { } Q ) [ } ` U I x & @.@.@.@.@.@.@.@.@.",
"@.@.@.@.@.@.@.@.@.@.q W o.C K .. .{ H n f f 8 O @.@.@.@.@.@.@.@.",
"@.@.@.@.@.@.@.@.@.  $ b Z F D /  .K 0 = * 0 0 # @.@.@.@.@.@.@.@.",
"@.@.@.@.@.@.@.@.@.    s m U ~ ) P 0 # o o # 4 7 $ @.@.@.@.@.@.@.",
"@.@.@.@.@.@.@.@.. O o f U { X.Q e * = # + o $ 9 $ @.@.@.@.@.@.@.",
"@.@.@.@.@.@.@.@.= < $ N ..+.O.Q 7 > < = $ + O 4 $ @.@.@.@.@.@.@.",
"@.@.@.@.@.@.@.@.= : 0 T _ | +.| y < 5 < = $ $ 3 # @.@.@.@.@.@.@.",
"@.@.@.@.@.@.@.@.$ 4 V R R ] O.X.L 9 3 3 = > p = @.@.@.@.@.@.@.@.",
"@.@.@.@.@.@.@.w l m Q z z E ] } E A 8 ; > j y O @.@.@.@.@.@.@.@.",
"@.@.@.@.@.@.@.d Z H A # $ N ` Q Z S D S M u - @.@.@.@.@.@.@.@.@.",
"@.@.@.@.@.@.@.% M ] v O o n ` S l j j l y = @.@.@.@.@.@.@.@.@.@.",
"@.@.@.@.@.@.@.= Z J * ; = V ` N b u , : + @.@.@.@.@.@.@.@.@.@.@.",
"@.@.@.@.@.@.@.h | A * = g ) ) x y g r , O @.@.@.@.@.@.@.@.@.@.@.",
"@.@.@.@.@.@.@.m o.H 3 < B ] ^ S 0 0 , , @ @.@.@.@.@.@.@.@.@.@.@.",
"@.@.@.@.@.@.q R ] ' B v ( Q Z z 1 = + O @.@.@.@.@.@.@.@.@.@.@.@.",
"@.@.@.@.@.@.: n C S F A K z e 8 - - + @.@.@.@.@.@.@.@.@.@.@.@.@.",
"@.@.@.@.@.@.& w r i f t t > s 9 @.X @.@.@.@.@.@.@.@.@.@.@.@.@.@.",
"@.@.@.@.@.@.9 h x M k k b d j q @.@.@.@.@.@.@.@.@.@.@.@.@.@.@.@.",
"@.@.@.@.@.@.i B l v h h c p M i @.@.@.@.@.@.@.@.@.@.@.@.@.@.@.@.",
"@.@.@.@.@.@.i z = @.@.@.@.= Z g @.@.@.@.@.@.@.@.@.@.@.@.@.@.@.@.",
"@.@.@.@.@.@.@.O O @.@.@.@.@.j i @.@.@.@.@.@.@.@.@.@.@.@.@.@.@.@.",
"@.@.@.@.@.@.@.O O @.@.@.@.@.O @.@.@.@.@.@.@.@.@.@.@.@.@.@.@.@.@.",
"@.@.@.@.@.@.@.@.@.@.@.@.@.@.@.@.@.@.@.@.@.@.@.@.@.@.@.@.@.@.@.@.",
"@.@.@.@.@.@.@.@.@.@.@.@.@.@.@.@.@.@.@.@.@.@.@.@.@.@.@.@.@.@.@.@.",
"@.@.@.@.@.@.@.@.@.@.@.@.@.@.@.@.@.@.@.@.@.@.@.@.@.@.@.@.@.@.@.@."
};
